<svg xmlns="http://www.w3.org/2000/svg" xmlns:xlink="http://www.w3.org/1999/xlink" width="2518px" height="772px" viewBox="0 0 2517.8328820179504 771.5707704131955">
    <g style="" id="3b30c19d-3278-4484-8379-907016932459">
<g style=""><path d="M-63.07200 24.05808Q-69.76800 24.05808 -74.84400 20.81808Q-79.92000 17.57808 -82.65600 11.99808Q-85.39200 6.41808 -85.39200 -0.42192Q-85.39200 -7.47792 -82.40400 -13.45392Q-79.41600 -19.42992 -74.26800 -22.88592Q-69.12000 -26.34192 -63.07200 -26.34192Q-57.31200 -26.34192 -52.95600 -24.72192Q-48.60000 -23.10192 -46.51200 -20.58192Q-45.28800 -19.06992 -45.00000 -16.58592Q-44.71200 -14.10192 -44.71200 -9.78192L-46.15200 -9.78192Q-47.52000 -16.76592 -51.19200 -20.11392Q-54.86400 -23.46192 -60.91200 -23.46192Q-68.68800 -23.46192 -73.44000 -17.98992Q-78.19200 -12.51792 -78.19200 -0.42192Q-78.19200 5.26608 -76.35600 10.16208Q-74.52000 15.05808 -70.63200 18.11808Q-66.74400 21.17808 -60.91200 21.17808Q-55.65600 21.17808 -51.73200 18.65808Q-47.80800 16.13808 -44.71200 11.09808L-43.27200 12.17808Q-46.58400 18.65808 -51.44400 21.35808Q-56.30400 24.05808 -63.07200 24.05808Z" fill="rgb(0,0,0)" fill-opacity="1.00" transform="matrix(14 0 0 14 1270.685153 413.898516) translate(0 0)"></path><path d="M-31.68000 -15.54192Q-33.33600 -15.54192 -34.52400 -16.90992Q-35.71200 -18.27792 -35.71200 -20.14992Q-35.71200 -21.66192 -34.81200 -22.52592Q-33.91200 -23.38992 -32.40000 -23.38992Q-30.74400 -23.38992 -29.55600 -22.02192Q-28.36800 -20.65392 -28.36800 -18.78192Q-28.36800 -17.26992 -29.26800 -16.40592Q-30.16800 -15.54192 -31.68000 -15.54192ZM-34.41600 -2.58192Q-34.41600 -6.25392 -35.42400 -8.01792Q-36.43200 -9.78192 -39.45600 -9.78192L-40.89600 -9.78192L-40.89600 -11.22192L-34.41600 -11.22192Q-31.75200 -11.22192 -30.42000 -10.53792Q-29.08800 -9.85392 -28.51200 -8.05392Q-27.93600 -6.25392 -27.93600 -2.58192L-27.93600 22.61808L-34.41600 22.61808Z" fill="rgb(0,0,0)" fill-opacity="1.00" transform="matrix(14 0 0 14 1270.685153 413.898516) translate(0 0)"></path><path d="M-7.77600 23.33808Q-11.80800 23.33808 -14.11200 21.03408Q-16.41600 18.73008 -16.41600 13.97808L-16.41600 -8.34192L-21.45600 -8.34192L-21.45600 -11.22192L-16.41600 -11.22192L-16.41600 -17.70192L-12.81600 -22.02192L-9.93600 -22.02192L-9.93600 -11.22192L-1.29600 -11.22192L-1.29600 -8.34192L-9.93600 -8.34192L-9.93600 13.97808Q-9.93600 20.45808 -4.89600 20.45808Q-3.16800 20.45808 -1.98000 20.09808Q-0.79200 19.73808 0.50400 19.01808L1.22400 20.45808Q-0.43200 21.68208 -2.44800 22.51008Q-4.46400 23.33808 -7.77600 23.33808Z" fill="rgb(0,0,0)" fill-opacity="1.00" transform="matrix(14 0 0 14 1270.685153 413.898516) translate(0 0)"></path><path d="M6.84000 -16.26192Q6.84000 -19.93392 5.83200 -21.69792Q4.82400 -23.46192 1.80000 -23.46192L0.36000 -23.46192L0.36000 -24.90192L6.84000 -24.90192Q9.50400 -24.90192 10.83600 -24.21792Q12.16800 -23.53392 12.74400 -21.73392Q13.32000 -19.93392 13.32000 -16.26192L13.32000 22.61808L6.84000 22.61808Z" fill="rgb(0,0,0)" fill-opacity="1.00" transform="matrix(14 0 0 14 1270.685153 413.898516) translate(0 0)"></path><path d="M32.04000 23.33808Q29.73600 23.33808 27.36000 22.36608Q24.98400 21.39408 23.29200 19.16208Q21.60000 16.93008 21.60000 13.25808Q21.60000 7.78608 26.67600 5.48208Q31.75200 3.17808 39.96000 3.17808L42.12000 3.17808Q42.12000 -3.87792 40.17600 -6.46992Q38.23200 -9.06192 34.56000 -9.06192Q31.32000 -9.06192 29.37600 -7.69392Q27.43200 -6.32592 26.64000 -2.94192L23.40000 -2.94192Q23.40000 -5.38992 23.68800 -6.79392Q23.97600 -8.19792 25.20000 -9.42192Q26.49600 -10.71792 29.48400 -11.32992Q32.47200 -11.94192 36.00000 -11.94192Q41.83200 -11.94192 45.21600 -8.80992Q48.60000 -5.67792 48.60000 3.17808L48.60000 22.61808L45.00000 22.61808L42.48000 19.37808L42.12000 19.37808Q40.82400 21.03408 38.30400 22.18608Q35.78400 23.33808 32.04000 23.33808ZM35.28000 20.09808Q37.65600 20.09808 39.24000 18.94608Q40.82400 17.79408 42.12000 15.77808L42.12000 6.05808L39.96000 6.05808Q34.63200 6.05808 31.53600 8.03808Q28.44000 10.01808 28.44000 13.25808Q28.44000 16.57008 30.42000 18.33408Q32.40000 20.09808 35.28000 20.09808Z" fill="rgb(0,0,0)" fill-opacity="1.00" transform="matrix(14 0 0 14 1270.685153 413.898516) translate(0 0)"></path><path d="M58.89600 -16.26192Q58.89600 -19.93392 57.88800 -21.69792Q56.88000 -23.46192 53.85600 -23.46192L52.41600 -23.46192L52.41600 -24.90192L58.89600 -24.90192Q61.56000 -24.90192 62.89200 -24.21792Q64.22400 -23.53392 64.80000 -21.73392Q65.37600 -19.93392 65.37600 -16.26192L65.37600 22.61808L58.89600 22.61808Z" fill="rgb(0,0,0)" fill-opacity="1.00" transform="matrix(14 0 0 14 1270.685153 413.898516) translate(0 0)"></path><path d="M79.84800 -15.54192Q78.19200 -15.54192 77.00400 -16.90992Q75.81600 -18.27792 75.81600 -20.14992Q75.81600 -21.66192 76.71600 -22.52592Q77.61600 -23.38992 79.12800 -23.38992Q80.78400 -23.38992 81.97200 -22.02192Q83.16000 -20.65392 83.16000 -18.78192Q83.16000 -17.26992 82.26000 -16.40592Q81.36000 -15.54192 79.84800 -15.54192ZM77.11200 -2.58192Q77.11200 -6.25392 76.10400 -8.01792Q75.09600 -9.78192 72.07200 -9.78192L70.63200 -9.78192L70.63200 -11.22192L77.11200 -11.22192Q79.77600 -11.22192 81.10800 -10.53792Q82.44000 -9.85392 83.01600 -8.05392Q83.59200 -6.25392 83.59200 -2.58192L83.59200 22.61808L77.11200 22.61808Z" fill="rgb(0,0,0)" fill-opacity="1.00" transform="matrix(14 0 0 14 1270.685153 413.898516) translate(0 0)"></path></g></g>

  </svg>