<svg width="64" height="65" viewBox="0 0 64 65" fill="none" xmlns="http://www.w3.org/2000/svg">
<g clip-path="url(#clip0_108_767)">
<path d="M53.8928 22.3928C53.8928 10.3017 44.0911 0.5 32 0.5C19.909 0.5 10.1072 10.3017 10.1072 22.3928C6.98141 22.782 4.02588 24.8254 4.02588 29.5688V41.0017C4.02588 46.3533 7.77198 48.2993 11.3235 48.2993H14.8507C15.1732 48.2993 15.4826 48.1712 15.7107 47.9431C15.9388 47.715 16.0669 47.4056 16.0669 47.083V23.5361C16.0669 23.2135 15.9388 22.9042 15.7107 22.6761C15.4826 22.448 15.1732 22.3198 14.8507 22.3198H12.5398C12.5398 11.5723 21.2525 2.85956 32 2.85956C42.7476 2.85956 51.4603 11.5723 51.4603 22.3198H49.1494C48.8268 22.3198 48.5175 22.448 48.2894 22.6761C48.0613 22.9042 47.9331 23.2135 47.9331 23.5361V47.0466C47.9331 47.3691 48.0613 47.6785 48.2894 47.9066C48.5175 48.1347 48.8268 48.2628 49.1494 48.2628H51.4603C51.1198 56.6186 47.1061 58.5768 39.0909 58.9295V58.1146C39.0909 56.7711 38.0019 55.6821 36.6583 55.6821H29.008C27.6645 55.6821 26.5755 56.7711 26.5755 58.1146V62.0675C26.5755 63.411 27.6645 64.5 29.008 64.5H36.6827C38.0262 64.5 39.1152 63.411 39.1152 62.0675V61.362C46.8263 61.0093 53.4915 59.416 53.8928 48.1898C57.0187 47.8006 59.9742 45.7573 59.9742 41.0139V29.581C59.9742 24.8132 57.0308 22.782 53.8928 22.3928ZM13.6344 24.6672V45.8303H11.2627C9.4626 45.8303 6.3976 45.1978 6.3976 40.9652V29.5323C6.3976 25.3362 9.42611 24.6672 11.2627 24.6672H13.6344ZM36.6827 60.2309V62.0796H29.008V58.1268H36.6827V60.2309ZM57.5417 41.0017C57.5417 45.1978 54.5131 45.8668 52.6766 45.8668H50.3657V24.7524H52.7374C54.5375 24.7524 57.6025 25.3848 57.6025 29.6174L57.5417 41.0017Z" fill="#171717"/>
</g>
<defs>
<clipPath id="clip0_108_767">
<rect width="64" height="64" fill="white" transform="translate(0 0.5)"/>
</clipPath>
</defs>
</svg>
