<svg width="64" height="65" viewBox="0 0 64 65" fill="none" xmlns="http://www.w3.org/2000/svg">
<path d="M52.0002 14.6001C46.1002 3.5001 35.6002 2.6001 32.6002 2.6001H31.4002C28.3002 2.6001 17.9002 3.5001 11.9002 14.6001V14.7001C11.7002 15.2001 6.50017 26.2001 13.4002 37.3001C13.5002 37.5001 17.2002 43.1001 17.6002 43.8001C17.8002 44.1001 18.1002 45.2001 18.2002 46.8001V54.3001C18.3002 56.4001 19.8002 58.0001 21.8002 58.3001C22.7002 58.4001 23.7002 58.5001 24.9002 58.6001H25.0002C26.2002 60.9001 29.0002 62.4001 32.0002 62.4001C33.5002 62.4001 34.9002 62.0001 36.1002 61.4001C37.3002 60.7001 38.2002 59.8001 38.9002 58.6001H39.1002C40.1002 58.6001 40.8002 58.5001 41.5002 58.5001C44.2002 58.2001 45.9002 56.3001 45.7002 53.5001C45.7002 53.1001 45.6002 52.7001 45.6002 52.2001C45.6002 51.8001 45.5002 51.4001 45.5002 51.2001C45.5002 51.0001 45.5002 50.3001 45.6002 49.5001C45.6002 48.5001 45.7002 46.8001 45.7002 46.5001C45.8002 45.5001 46.0002 44.4001 46.3002 43.8001C46.7002 43.1001 50.4002 37.5001 50.5002 37.3001C57.3002 26.3001 52.2002 15.2001 51.9002 14.7001L52.0002 14.6001ZM48.5002 36.0001C48.4002 36.2001 44.7002 41.8001 44.3002 42.4001C43.6002 43.4001 43.4002 44.9001 43.3002 46.2001C43.3002 46.6001 43.2002 47.7001 43.2002 49.4001V51.0001C43.2002 51.5001 43.2002 52.0001 43.3002 52.5001C43.3002 52.8001 43.4002 53.2001 43.4002 53.5001C43.5002 54.9001 42.8002 55.7001 41.4002 55.9001C40.8002 56.0001 40.1002 56.0001 39.2002 56.0001C37.5002 56.0001 37.0002 57.0001 36.8002 57.3001C36.4002 58.0001 35.8002 58.7001 35.0002 59.1001C34.2002 59.6001 33.2002 59.8001 32.1002 59.8001C29.9002 59.8001 28.0002 58.8001 27.2002 57.2001C26.8002 56.4001 26.1002 56.0001 25.1002 56.0001C23.9002 55.9001 23.0002 55.9001 22.2002 55.8001C21.4002 55.7001 20.8002 55.0001 20.7002 54.2001V46.8001C20.6002 45.6001 20.4002 43.5001 19.7002 42.5001C19.3002 41.9001 15.7002 36.3001 15.5002 36.0001C9.40017 26.1001 14.0002 16.2001 14.2002 15.8001C19.5002 5.8001 28.7002 5.1001 31.4002 5.1001H32.6002C35.3002 5.1001 44.6002 5.9001 49.8002 15.7001V15.8001C50.1002 16.3001 54.5002 26.1001 48.5002 36.0001Z" fill="#171717"/>
<path d="M39.8002 44.7003H23.7002C23.4002 44.7003 23.2002 44.9003 23.2002 45.2003C23.2002 45.5003 23.4002 45.7003 23.7002 45.7003H39.8002C40.1002 45.7003 40.3002 45.5003 40.3002 45.2003C40.3002 44.9003 40.1002 44.7003 39.8002 44.7003ZM24.4002 19.7003C24.7002 19.6003 24.8002 19.3003 24.7002 19.1003C24.6002 18.8003 24.7002 18.5003 24.8002 18.2003C24.9002 17.9003 25.2002 17.8003 25.4002 17.7003C29.7002 16.5003 34.1002 16.5003 38.5002 17.7003C38.8002 17.8003 39.0002 18.0003 39.1002 18.2003C39.2002 18.5003 39.3002 18.8003 39.2002 19.1003L35.1002 33.2003C35.0002 33.5003 35.2002 33.7003 35.4002 33.8003H35.5002C35.7002 33.8003 35.9002 33.7003 36.0002 33.4003L40.1002 19.3003C40.3002 18.8003 40.2002 18.2003 39.9002 17.7003C39.6002 17.2003 39.2002 16.9003 38.7002 16.7003C34.2002 15.5003 29.6002 15.5003 25.1002 16.7003C24.6002 16.8003 24.1002 17.2003 23.9002 17.7003C23.6002 18.2003 23.5002 18.8003 23.7002 19.3003C23.8002 19.7003 24.1002 19.8003 24.4002 19.7003ZM25.4002 23.2003C25.1002 23.3003 25.0002 23.5003 25.0002 23.8003L27.8002 33.5003C27.9002 33.7003 28.1002 33.9003 28.3002 33.9003H28.4002C28.7002 33.8003 28.8002 33.5003 28.7002 33.3003L26.0002 23.5003C25.9002 23.3003 25.6002 23.1003 25.4002 23.2003Z" fill="#171717"/>
</svg>
