<svg width="64" height="65" viewBox="0 0 64 65" fill="none" xmlns="http://www.w3.org/2000/svg">
<path d="M63.7681 21.79L54.9577 7.22261C54.6852 6.77075 54.2194 6.50093 53.711 6.50093H32.0004C31.185 6.50093 30.522 7.20078 30.522 8.06039C30.522 8.92 31.185 9.61985 32.0004 9.61985H52.9L60.6581 22.4471L45.4369 39.6249L14.8843 6.96579C14.6078 6.66904 14.238 6.50325 13.8431 6.5C13.7995 6.50093 13.7564 6.51022 13.7132 6.51486C13.6674 6.51022 13.6238 6.50046 13.5772 6.50046H9.40931C8.88057 6.50046 8.38925 6.80093 8.1273 7.28391L0.197924 21.8522C-0.128303 22.4513 -0.0455346 23.1929 0.403962 23.6982L31.0472 58.0063C31.3189 58.3091 31.6979 58.4861 32.0915 58.4949C32.1276 58.4981 32.1633 58.5 32.1989 58.5C32.563 58.5 32.9148 58.3259 33.2027 58.0008L63.6016 23.6936C64.0626 23.173 64.1308 22.3904 63.7681 21.79ZM13.2135 9.61985L43.417 41.9055L32.1188 54.6561L3.30918 22.4016L10.266 9.61985H13.2135Z" fill="#171717"/>
</svg>
